# xmcd
# Track frame offsets:
# 150
# 12052
# 23727
# 36061
# 49069
# 61579
# 73435
# 86566
# 99292
# 111725
# 123973
# 136507
# 148923
# 161348
# 174157
# 186561
# 199336
# 212478
# 224992
# 237764
#
# Disc length: 3335 seconds
# Revision: 0
# Processed by: cddbd v1.4PL0 Copyright (c) Steve Scherf et al.
# Submitted via: VisiTrax 2.9.5.181 - For more info visit www.synapsa.com
#
DISCID=200d0514
DTITLE=Hank Williams - Hank Williams Collection
DYEAR=1999
DGENRE=Country
TTITLE0=I'll Be A Bachelor 'Till I Die
TTITLE1=I'm Satisfied With You
TTITLE2=Fly Trouble
TTITLE3=I'm A Long Gone Daddy
TTITLE4=My Sweet Love Ain't Around
TTITLE5=A Mansion On The Hill
TTITLE6=On The Banks Of The Old Ponchartrain
TTITLE7=Rootie Tootoe
TTITLE8=Honky Tonkin'
TTITLE9=The Blues Come Around
TTITLE10=I Saw The Light
TTITLE11=Move It On Over
TTITLE12=(Last Night) I Heard You Crying In Your Sleep
TTITLE13=Pan American
TTITLE14=My Love For You (Has Turned To Hate)
TTITLE15=I Don't Care (If Tomorrow Never Comes)
TTITLE16=Calling You
TTITLE17=Lovesick Blues
TTITLE18=When God Comes And Gathers His Jewels
TTITLE19=Six More Miles
EXTD=
EXTT0=
EXTT1=
EXTT2=
EXTT3=
EXTT4=
EXTT5=
EXTT6=
EXTT7=
EXTT8=
EXTT9=
EXTT10=
EXTT11=
EXTT12=
EXTT13=
EXTT14=
EXTT15=
EXTT16=
EXTT17=
EXTT18=
EXTT19=
PLAYORDER=
